<mxfile host="app.diagrams.net" agent="Mozilla/5.0 (Windows NT 10.0; Win64; x64; rv:137.0) Gecko/20100101 Firefox/137.0" version="26.1.1">
  <diagram name="Страница — 1" id="PaI8IPLGgFUFwOvJCFp6">
    <mxGraphModel dx="1050" dy="538" grid="0" gridSize="10" guides="1" tooltips="1" connect="1" arrows="1" fold="1" page="1" pageScale="1" pageWidth="827" pageHeight="1169" math="0" shadow="0">
      <root>
        <mxCell id="0" />
        <mxCell id="1" parent="0" />
        <mxCell id="LCRRv-766jGbRX7zKB-T-1" value="&lt;div&gt;Студент&lt;/div&gt;" style="shape=umlActor;verticalLabelPosition=bottom;verticalAlign=top;html=1;outlineConnect=0;" vertex="1" parent="1">
          <mxGeometry x="105" y="80" width="30" height="60" as="geometry" />
        </mxCell>
        <mxCell id="LCRRv-766jGbRX7zKB-T-2" value="" style="endArrow=none;dashed=1;html=1;rounded=0;" edge="1" parent="1">
          <mxGeometry width="50" height="50" relative="1" as="geometry">
            <mxPoint x="120" y="440" as="sourcePoint" />
            <mxPoint x="120" y="160" as="targetPoint" />
          </mxGeometry>
        </mxCell>
        <mxCell id="LCRRv-766jGbRX7zKB-T-3" value="" style="endArrow=none;dashed=1;html=1;rounded=0;entryX=0.5;entryY=1;entryDx=0;entryDy=0;" edge="1" parent="1" source="LCRRv-766jGbRX7zKB-T-6" target="LCRRv-766jGbRX7zKB-T-15">
          <mxGeometry width="50" height="50" relative="1" as="geometry">
            <mxPoint x="280" y="440" as="sourcePoint" />
            <mxPoint x="280" y="170" as="targetPoint" />
          </mxGeometry>
        </mxCell>
        <mxCell id="LCRRv-766jGbRX7zKB-T-4" value="" style="endArrow=none;dashed=1;html=1;rounded=0;entryX=0.5;entryY=1;entryDx=0;entryDy=0;" edge="1" parent="1" source="LCRRv-766jGbRX7zKB-T-9" target="LCRRv-766jGbRX7zKB-T-16">
          <mxGeometry width="50" height="50" relative="1" as="geometry">
            <mxPoint x="440" y="440" as="sourcePoint" />
            <mxPoint x="440" y="170" as="targetPoint" />
          </mxGeometry>
        </mxCell>
        <mxCell id="LCRRv-766jGbRX7zKB-T-5" value="" style="endArrow=none;dashed=1;html=1;rounded=0;entryX=0.5;entryY=1;entryDx=0;entryDy=0;" edge="1" parent="1" source="LCRRv-766jGbRX7zKB-T-12" target="LCRRv-766jGbRX7zKB-T-17">
          <mxGeometry width="50" height="50" relative="1" as="geometry">
            <mxPoint x="600" y="440" as="sourcePoint" />
            <mxPoint x="600" y="170" as="targetPoint" />
          </mxGeometry>
        </mxCell>
        <mxCell id="LCRRv-766jGbRX7zKB-T-7" value="" style="endArrow=none;dashed=1;html=1;rounded=0;" edge="1" parent="1" target="LCRRv-766jGbRX7zKB-T-6">
          <mxGeometry width="50" height="50" relative="1" as="geometry">
            <mxPoint x="280" y="440" as="sourcePoint" />
            <mxPoint x="280" y="170" as="targetPoint" />
          </mxGeometry>
        </mxCell>
        <mxCell id="LCRRv-766jGbRX7zKB-T-6" value="" style="rounded=0;whiteSpace=wrap;html=1;" vertex="1" parent="1">
          <mxGeometry x="270" y="190" width="20" height="240" as="geometry" />
        </mxCell>
        <mxCell id="LCRRv-766jGbRX7zKB-T-11" value="" style="endArrow=none;dashed=1;html=1;rounded=0;" edge="1" parent="1" target="LCRRv-766jGbRX7zKB-T-9">
          <mxGeometry width="50" height="50" relative="1" as="geometry">
            <mxPoint x="440" y="440" as="sourcePoint" />
            <mxPoint x="440" y="170" as="targetPoint" />
          </mxGeometry>
        </mxCell>
        <mxCell id="LCRRv-766jGbRX7zKB-T-9" value="" style="rounded=0;whiteSpace=wrap;html=1;" vertex="1" parent="1">
          <mxGeometry x="430" y="190" width="20" height="120" as="geometry" />
        </mxCell>
        <mxCell id="LCRRv-766jGbRX7zKB-T-14" value="" style="endArrow=none;dashed=1;html=1;rounded=0;" edge="1" parent="1" target="LCRRv-766jGbRX7zKB-T-12">
          <mxGeometry width="50" height="50" relative="1" as="geometry">
            <mxPoint x="600" y="440" as="sourcePoint" />
            <mxPoint x="600" y="170" as="targetPoint" />
          </mxGeometry>
        </mxCell>
        <mxCell id="LCRRv-766jGbRX7zKB-T-12" value="" style="rounded=0;whiteSpace=wrap;html=1;" vertex="1" parent="1">
          <mxGeometry x="590" y="310" width="20" height="120" as="geometry" />
        </mxCell>
        <mxCell id="LCRRv-766jGbRX7zKB-T-15" value="Интерфейс" style="rounded=1;whiteSpace=wrap;html=1;" vertex="1" parent="1">
          <mxGeometry x="220" y="100" width="120" height="60" as="geometry" />
        </mxCell>
        <mxCell id="LCRRv-766jGbRX7zKB-T-16" value="Система" style="rounded=1;whiteSpace=wrap;html=1;" vertex="1" parent="1">
          <mxGeometry x="380" y="100" width="120" height="60" as="geometry" />
        </mxCell>
        <mxCell id="LCRRv-766jGbRX7zKB-T-17" value="Слушатель" style="rounded=1;whiteSpace=wrap;html=1;" vertex="1" parent="1">
          <mxGeometry x="540" y="100" width="120" height="60" as="geometry" />
        </mxCell>
        <mxCell id="LCRRv-766jGbRX7zKB-T-18" value="" style="rounded=0;whiteSpace=wrap;html=1;" vertex="1" parent="1">
          <mxGeometry x="110" y="190" width="20" height="240" as="geometry" />
        </mxCell>
        <mxCell id="LCRRv-766jGbRX7zKB-T-19" value="" style="endArrow=classic;html=1;rounded=0;exitX=1.108;exitY=0.21;exitDx=0;exitDy=0;exitPerimeter=0;entryX=-0.158;entryY=0.207;entryDx=0;entryDy=0;entryPerimeter=0;" edge="1" parent="1" source="LCRRv-766jGbRX7zKB-T-18" target="LCRRv-766jGbRX7zKB-T-6">
          <mxGeometry width="50" height="50" relative="1" as="geometry">
            <mxPoint x="350" y="280" as="sourcePoint" />
            <mxPoint x="400" y="230" as="targetPoint" />
          </mxGeometry>
        </mxCell>
        <mxCell id="LCRRv-766jGbRX7zKB-T-20" value="" style="endArrow=classic;html=1;rounded=0;exitX=1.108;exitY=0.21;exitDx=0;exitDy=0;exitPerimeter=0;entryX=0;entryY=0.25;entryDx=0;entryDy=0;" edge="1" parent="1" target="LCRRv-766jGbRX7zKB-T-9">
          <mxGeometry width="50" height="50" relative="1" as="geometry">
            <mxPoint x="290" y="220" as="sourcePoint" />
            <mxPoint x="425" y="220" as="targetPoint" />
          </mxGeometry>
        </mxCell>
        <mxCell id="LCRRv-766jGbRX7zKB-T-21" value="" style="endArrow=classic;html=1;rounded=0;exitX=1.108;exitY=0.21;exitDx=0;exitDy=0;exitPerimeter=0;entryX=0;entryY=0.25;entryDx=0;entryDy=0;" edge="1" parent="1" target="LCRRv-766jGbRX7zKB-T-12">
          <mxGeometry width="50" height="50" relative="1" as="geometry">
            <mxPoint x="290" y="340" as="sourcePoint" />
            <mxPoint x="430" y="340" as="targetPoint" />
          </mxGeometry>
        </mxCell>
        <mxCell id="LCRRv-766jGbRX7zKB-T-22" value="" style="endArrow=classic;html=1;rounded=0;exitX=0;exitY=0.667;exitDx=0;exitDy=0;exitPerimeter=0;dashed=1;entryX=1;entryY=0.667;entryDx=0;entryDy=0;entryPerimeter=0;" edge="1" parent="1" source="LCRRv-766jGbRX7zKB-T-6" target="LCRRv-766jGbRX7zKB-T-18">
          <mxGeometry width="50" height="50" relative="1" as="geometry">
            <mxPoint x="135" y="280" as="sourcePoint" />
            <mxPoint x="135" y="350" as="targetPoint" />
          </mxGeometry>
        </mxCell>
        <mxCell id="LCRRv-766jGbRX7zKB-T-23" value="" style="endArrow=classic;html=1;rounded=0;exitX=0;exitY=0.667;exitDx=0;exitDy=0;exitPerimeter=0;dashed=1;entryX=1;entryY=0.667;entryDx=0;entryDy=0;entryPerimeter=0;" edge="1" parent="1">
          <mxGeometry width="50" height="50" relative="1" as="geometry">
            <mxPoint x="430" y="290" as="sourcePoint" />
            <mxPoint x="290" y="290" as="targetPoint" />
          </mxGeometry>
        </mxCell>
        <mxCell id="LCRRv-766jGbRX7zKB-T-24" value="" style="endArrow=classic;html=1;rounded=0;exitX=0;exitY=0.667;exitDx=0;exitDy=0;exitPerimeter=0;dashed=1;" edge="1" parent="1">
          <mxGeometry width="50" height="50" relative="1" as="geometry">
            <mxPoint x="590" y="400" as="sourcePoint" />
            <mxPoint x="292" y="400" as="targetPoint" />
          </mxGeometry>
        </mxCell>
        <mxCell id="LCRRv-766jGbRX7zKB-T-25" value="Запрос записи на семинар" style="text;html=1;align=center;verticalAlign=middle;whiteSpace=wrap;rounded=0;" vertex="1" parent="1">
          <mxGeometry x="150" y="210" width="100" height="30" as="geometry" />
        </mxCell>
        <mxCell id="LCRRv-766jGbRX7zKB-T-26" value="Запрос истории посещений" style="text;html=1;align=center;verticalAlign=middle;whiteSpace=wrap;rounded=0;" vertex="1" parent="1">
          <mxGeometry x="303.5" y="190" width="110" height="30" as="geometry" />
        </mxCell>
        <mxCell id="LCRRv-766jGbRX7zKB-T-27" value="История посещений" style="text;html=1;align=center;verticalAlign=middle;whiteSpace=wrap;rounded=0;" vertex="1" parent="1">
          <mxGeometry x="303.5" y="260" width="120" height="30" as="geometry" />
        </mxCell>
        <mxCell id="LCRRv-766jGbRX7zKB-T-28" value="Запрос на получение статуса подготовленности" style="text;html=1;align=center;verticalAlign=middle;whiteSpace=wrap;rounded=0;" vertex="1" parent="1">
          <mxGeometry x="305" y="318" width="270" height="30" as="geometry" />
        </mxCell>
        <mxCell id="LCRRv-766jGbRX7zKB-T-30" value="Статус подготовленности" style="text;html=1;align=center;verticalAlign=middle;whiteSpace=wrap;rounded=0;" vertex="1" parent="1">
          <mxGeometry x="370" y="378" width="150" height="30" as="geometry" />
        </mxCell>
        <mxCell id="LCRRv-766jGbRX7zKB-T-31" value="Результат запроса записи на семинар" style="text;html=1;align=center;verticalAlign=middle;whiteSpace=wrap;rounded=0;" vertex="1" parent="1">
          <mxGeometry x="150" y="320" width="110" height="30" as="geometry" />
        </mxCell>
      </root>
    </mxGraphModel>
  </diagram>
</mxfile>
